<?xml version="1.0" encoding="UTF-8" standalone="no"?>
<!-- Created with Inkscape (http://www.inkscape.org/) -->

<svg
   xmlns:dc="http://purl.org/dc/elements/1.1/"
   xmlns:cc="http://creativecommons.org/ns#"
   xmlns:rdf="http://www.w3.org/1999/02/22-rdf-syntax-ns#"
   xmlns:svg="http://www.w3.org/2000/svg"
   xmlns="http://www.w3.org/2000/svg"
   xmlns:sodipodi="http://sodipodi.sourceforge.net/DTD/sodipodi-0.dtd"
   xmlns:inkscape="http://www.inkscape.org/namespaces/inkscape"
   version="1.1"
   id="svg815"
   xml:space="preserve"
   width="431.4119"
   height="412.58234"
   viewBox="0 0 431.4119 412.58234"
   sodipodi:docname="isologo_grower-lab_thin.svg"
   inkscape:version="0.92.4 (5da689c313, 2019-01-14)"><metadata
     id="metadata821"><rdf:RDF><cc:Work
         rdf:about=""><dc:format>image/svg+xml</dc:format><dc:type
           rdf:resource="http://purl.org/dc/dcmitype/StillImage" /><dc:title></dc:title></cc:Work></rdf:RDF></metadata><defs
     id="defs819"><clipPath
   clipPathUnits="userSpaceOnUse"
   id="clipPath831"><path
     d="M 0,500 H 500 V 0 H 0 Z"
     id="path829"
     inkscape:connector-curvature="0" /></clipPath>

</defs><sodipodi:namedview
     pagecolor="#ffffff"
     bordercolor="#666666"
     borderopacity="1"
     objecttolerance="10"
     gridtolerance="10"
     guidetolerance="10"
     inkscape:pageopacity="0"
     inkscape:pageshadow="2"
     inkscape:window-width="1304"
     inkscape:window-height="745"
     id="namedview817"
     showgrid="false"
     inkscape:zoom="0.61094024"
     inkscape:cx="-1.6364431"
     inkscape:cy="203.07376"
     inkscape:window-x="-8"
     inkscape:window-y="-8"
     inkscape:window-maximized="1"
     inkscape:current-layer="g823"
     inkscape:snap-grids="false"
     inkscape:snap-to-guides="false"
     inkscape:snap-page="true" /><g
     id="g823"
     inkscape:groupmode="layer"
     inkscape:label="logo_grower-lab"
     transform="matrix(1.3333333,0,0,-1.3333333,-132.55599,676.63956)"><g
       id="g838"
       transform="translate(0,7.5)"><g
         style="fill:#000000;fill-opacity:1;stroke:#000000;stroke-width:1.53750908;stroke-miterlimit:10;stroke-dasharray:none;stroke-opacity:1"
         transform="matrix(1.465312,0,0,1.4615026,262.31115,310.81954)"
         id="g833"><path
           inkscape:connector-curvature="0"
           id="path835"
           style="fill:#000000;fill-opacity:1;fill-rule:nonzero;stroke:#000000;stroke-width:1.53750908;stroke-miterlimit:10;stroke-dasharray:none;stroke-opacity:1"
           d="m 0,0 -1.64,1.078 4.346,6.61 c 0.161,1.216 1.001,6.611 3.513,9.437 2.447,2.755 6.349,6.531 11.967,7.517 5.275,0.925 20.734,1.969 21.39,2.013 l 7.895,0.529 -7.527,-2.442 c -0.076,-0.024 -7.629,-2.499 -10.678,-5.62 l -0.313,-0.32 C 26.662,16.452 25.007,14.754 19.842,12.226 13.975,9.354 6.1,7.062 4.312,6.559 Z" /></g><g
         style="fill:#000000;fill-opacity:1;stroke:#000000;stroke-width:1.53750908;stroke-miterlimit:10;stroke-dasharray:none;stroke-opacity:1"
         transform="matrix(1.465312,0,0,1.4615026,263.72064,333.20523)"
         id="g837"><path
           inkscape:connector-curvature="0"
           id="path839"
           style="fill:#000000;fill-opacity:1;fill-rule:nonzero;stroke:#000000;stroke-width:1.53750908;stroke-miterlimit:10;stroke-dasharray:none;stroke-opacity:1"
           d="m 0,0 -6.629,6.028 c -5.74,1.722 -7.073,2.197 -8.755,2.796 -0.725,0.258 -1.519,0.541 -2.771,0.961 -4.483,1.503 -6.929,3.35 -9.897,5.797 -4.786,3.946 -11.615,6.404 -11.683,6.429 l -6.289,2.24 6.668,-0.336 c 0.527,-0.027 12.994,-0.662 17.969,-1.527 l 0.365,-0.064 c 4.734,-0.822 6.693,-1.161 11.418,-5.36 3.579,-3.181 4.287,-8.121 4.421,-9.599 L 1.32,1.452 Z" /></g><g
         style="fill:#000000;fill-opacity:1;stroke:#000000;stroke-width:1.53750908;stroke-miterlimit:10;stroke-dasharray:none;stroke-opacity:1"
         transform="matrix(1.465312,0,0,1.4615026,262.20521,305.40804)"
         id="g841"><path
           inkscape:connector-curvature="0"
           id="path843"
           style="fill:#000000;fill-opacity:1;fill-rule:nonzero;stroke:#000000;stroke-width:1.53750908;stroke-miterlimit:10;stroke-dasharray:none;stroke-opacity:1"
           d="m 0,0 -1.944,0.263 c 0.26,1.935 0.305,3.685 0.351,5.537 0.067,2.657 0.136,5.404 0.844,8.994 0.2,1.018 0.418,1.924 0.628,2.799 0.795,3.315 1.546,6.448 1.56,15.615 -1.179,1.874 -8.341,13.445 -10.875,22.084 -1.365,4.653 -1.541,14.875 -0.354,20.64 2.367,11.5 7.061,14.671 7.261,14.8 l 1.06,0.69 0.405,-1.198 C -1.033,90.133 2.021,81.101 3.26,78.709 3.907,77.456 4.736,76.216 5.613,74.904 7.09,72.692 8.766,70.187 10.313,66.63 11.629,63.601 13.946,55.365 12.704,49.241 11.453,43.078 4.77,34.782 3.402,33.134 3.382,23.789 2.571,20.407 1.787,17.136 1.582,16.279 1.369,15.393 1.176,14.414 0.5,10.988 0.434,8.326 0.369,5.751 0.321,3.844 0.275,2.042 0,0" /></g><g
         style="fill:#000000;fill-opacity:1;stroke:#000000;stroke-width:1.53750908;stroke-miterlimit:10;stroke-dasharray:none;stroke-opacity:1"
         transform="matrix(1.465312,0,0,1.4615026,291.07933,224.63669)"
         id="g845"><path
           inkscape:connector-curvature="0"
           id="path847"
           style="fill:#000000;fill-opacity:1;fill-rule:nonzero;stroke:#000000;stroke-width:1.53750908;stroke-miterlimit:10;stroke-dasharray:none;stroke-opacity:1"
           d="m 0,0 h -39.705 c -0.445,0 -0.835,0.549 -0.949,0.979 L -49.6,34.954 c -0.078,0.295 -0.014,0.515 0.171,0.757 0.186,0.241 0.474,0.289 0.778,0.289 H 7.884 c 0.3,0 0.583,0.019 0.768,-0.216 C 8.839,35.55 8.907,35.321 8.84,35.029 L 0.955,0.968 C 0.852,0.524 0.456,0 0,0" /></g><g
         style="fill:#000000;fill-opacity:1;stroke:#000000;stroke-width:1.53750908;stroke-miterlimit:10;stroke-dasharray:none;stroke-opacity:1"
         transform="matrix(1.465312,0,0,1.4615026,306.5309,288.03413)"
         id="g849"><path
           inkscape:connector-curvature="0"
           id="path851"
           style="fill:#000000;fill-opacity:1;fill-rule:nonzero;stroke:#000000;stroke-width:1.53750908;stroke-miterlimit:10;stroke-dasharray:none;stroke-opacity:1"
           d="M 0,0 C 0,-0.542 -0.183,-1.273 -0.688,-1.273 H -61.659 C -62.165,-1.273 -63,-0.542 -63,0 v 11.284 c 0,0.541 0.835,1.443 1.341,1.443 H -0.688 C -0.183,12.727 0,11.825 0,11.284 Z" /></g></g><path
       style="color:#000000;font-style:normal;font-variant:normal;font-weight:normal;font-stretch:normal;font-size:medium;line-height:normal;font-family:sans-serif;font-variant-ligatures:normal;font-variant-position:normal;font-variant-caps:normal;font-variant-numeric:normal;font-variant-alternates:normal;font-feature-settings:normal;text-indent:0;text-align:start;text-decoration:none;text-decoration-line:none;text-decoration-style:solid;text-decoration-color:#000000;letter-spacing:normal;word-spacing:normal;text-transform:none;writing-mode:lr-tb;direction:ltr;text-orientation:mixed;dominant-baseline:auto;baseline-shift:baseline;text-anchor:start;white-space:normal;shape-padding:0;clip-rule:nonzero;display:inline;overflow:visible;visibility:visible;opacity:1;isolation:auto;mix-blend-mode:normal;color-interpolation:sRGB;color-interpolation-filters:linearRGB;solid-color:#000000;solid-opacity:1;vector-effect:none;fill:#000000;fill-opacity:1;fill-rule:nonzero;stroke:#000000;stroke-width:11.25;stroke-linecap:butt;stroke-linejoin:miter;stroke-miterlimit:10;stroke-dasharray:none;stroke-dashoffset:0;stroke-opacity:1;color-rendering:auto;image-rendering:auto;shape-rendering:auto;text-rendering:auto;enable-background:accumulate"
       d="m 359.43164,203.66797 c -49.14424,0 -185.25983,0.40873 -196.73633,0.50781 h -0.002 c -6.38168,0.0559 -11.57377,0.96463 -15.45508,3.83203 -3.88131,2.86741 -5.80753,7.64293 -5.86914,13.53321 v 0.002 c -0.11544,11.17444 -0.008,133.20396 -0.002,139.64844 -2.37637,-0.4214 -5.61931,-0.87024 -9.24219,-0.98243 -7.07988,-0.21922 -15.80366,0.67785 -21.06445,6.91602 -4.54103,5.38326 -6.3877,12.3232 -5.95703,18.79492 0.43066,6.47172 3.1533,12.67156 8.3496,16.24414 v -0.002 l 148.22266,98.55664 71.11524,-47.55859 c 17.55267,-11.93655 35.29845,-24.0493 49.04882,-33.53125 6.87519,-4.74098 12.75175,-8.82318 17.11328,-11.9043 4.36154,-3.08112 6.92337,-4.88001 8.21876,-6.05469 v -0.002 c 10.04011,-9.10968 13.19619,-21.72769 7.12304,-30.75781 -4.80472,-7.14065 -14.00474,-9.23242 -21.66797,-9.97852 -4.65632,-0.45335 -8.29221,-0.35558 -10.91992,-0.19922 -10e-4,-4.66172 -0.0278,-103.51975 -0.39648,-136.72851 -0.0666,-5.9946 -1.31125,-11.25519 -4.99024,-14.9668 -3.67898,-3.71161 -9.30366,-5.36914 -16.88867,-5.36914 z m 0,6 c 6.72376,0 10.47473,1.42244 12.62695,3.59375 2.15223,2.17131 3.19402,5.59493 3.25196,10.80859 0.37584,33.85385 0.40625,139.87696 0.40625,139.87696 v 3.36914 l 3.34765,-0.39063 c 0,0 6.04919,-0.69828 12.98047,-0.0234 6.93129,0.67484 14.27489,2.90397 17.27149,7.35743 4.08313,6.07304 2.346,15.23278 -6.17579,22.96484 -0.24538,0.22252 -3.32273,2.54242 -7.65039,5.59961 -4.32765,3.05719 -10.19164,7.13129 -17.05664,11.86523 -13.72999,9.46789 -31.46858,21.5751 -49.01562,33.50782 -34.2507,23.29189 -66.16065,44.83014 -67.75195,45.90429 -2.97453,-1.98433 -131.43717,-87.68213 -144.8125,-96.88281 h -0.002 c -3.27906,-2.25443 -5.42675,-6.66367 -5.76172,-11.69727 -0.33496,-5.03359 1.15764,-10.4956 4.5586,-14.52734 3.19551,-3.7892 9.97831,-4.98454 16.29101,-4.78906 6.31271,0.19547 11.67578,1.57422 11.67578,1.57422 l 3.75586,0.97265 -0.004,-3.8789 c 0,0 -0.11107,-132.3231 0.002,-143.26758 v -0.002 c 0.0501,-4.75677 1.21271,-7.12736 3.43555,-8.76954 2.22318,-1.64242 6.14927,-2.60744 11.9414,-2.6582 11.20652,-0.0968 147.57475,-0.50781 196.68555,-0.50781 z"
       id="path855"
       inkscape:connector-curvature="0"
       sodipodi:nodetypes="ccccccccccccccsccccccccccccccccccccssccccccccccccccc" /></g></svg>