<?xml version="1.0" encoding="UTF-8" standalone="no"?>
<!-- Created with Inkscape (http://www.inkscape.org/) -->

<svg
   xmlns:dc="http://purl.org/dc/elements/1.1/"
   xmlns:cc="http://creativecommons.org/ns#"
   xmlns:rdf="http://www.w3.org/1999/02/22-rdf-syntax-ns#"
   xmlns:svg="http://www.w3.org/2000/svg"
   xmlns="http://www.w3.org/2000/svg"
   xmlns:sodipodi="http://sodipodi.sourceforge.net/DTD/sodipodi-0.dtd"
   xmlns:inkscape="http://www.inkscape.org/namespaces/inkscape"
   version="1.1"
   id="svg815"
   xml:space="preserve"
   width="431.4119"
   height="673.37207"
   viewBox="0 0 431.4119 673.37208"
   sodipodi:docname="logo_grower-lab_white.svg"
   inkscape:version="0.92.4 (5da689c313, 2019-01-14)"><metadata
     id="metadata821"><rdf:RDF><cc:Work
         rdf:about=""><dc:format>image/svg+xml</dc:format><dc:type
           rdf:resource="http://purl.org/dc/dcmitype/StillImage" /><dc:title /></cc:Work></rdf:RDF></metadata><defs
     id="defs819"><clipPath
   clipPathUnits="userSpaceOnUse"
   id="clipPath831"><path
     d="M 0,500 H 500 V 0 H 0 Z"
     id="path829"
     inkscape:connector-curvature="0" /></clipPath>

</defs><sodipodi:namedview
     pagecolor="#ffffff"
     bordercolor="#666666"
     borderopacity="1"
     objecttolerance="10"
     gridtolerance="10"
     guidetolerance="10"
     inkscape:pageopacity="0"
     inkscape:pageshadow="2"
     inkscape:window-width="1304"
     inkscape:window-height="745"
     id="namedview817"
     showgrid="false"
     inkscape:zoom="0.61094024"
     inkscape:cx="171.37957"
     inkscape:cy="292.77777"
     inkscape:window-x="-8"
     inkscape:window-y="-8"
     inkscape:window-maximized="1"
     inkscape:current-layer="g823"
     inkscape:snap-to-guides="false"
     inkscape:snap-page="true" /><g
     id="g823"
     inkscape:groupmode="layer"
     inkscape:label="logo_grower-lab"
     transform="matrix(1.3333333,0,0,-1.3333333,-132.55599,676.63956)"><g
       id="g4604"
       style="fill:#fefefe;fill-opacity:1;stroke:none;stroke-opacity:1"><g
         style="fill:#fefefe;fill-opacity:1;stroke:none;stroke-width:0.68333739;stroke-opacity:1"
         transform="matrix(1.465312,0,0,1.4615026,262.31115,310.81954)"
         id="g833"><path
           inkscape:connector-curvature="0"
           id="path835"
           style="fill:#fefefe;fill-opacity:1;fill-rule:nonzero;stroke:none;stroke-width:0.68333739;stroke-opacity:1"
           d="m 0,0 -1.64,1.078 4.346,6.61 c 0.161,1.216 1.001,6.611 3.513,9.437 2.447,2.755 6.349,6.531 11.967,7.517 5.275,0.925 20.734,1.969 21.39,2.013 l 7.895,0.529 -7.527,-2.442 c -0.076,-0.024 -7.629,-2.499 -10.678,-5.62 l -0.313,-0.32 C 26.662,16.452 25.007,14.754 19.842,12.226 13.975,9.354 6.1,7.062 4.312,6.559 Z" /></g><g
         style="fill:#fefefe;fill-opacity:1;stroke:none;stroke-width:0.68333739;stroke-opacity:1"
         transform="matrix(1.465312,0,0,1.4615026,263.72064,333.20523)"
         id="g837"><path
           inkscape:connector-curvature="0"
           id="path839"
           style="fill:#fefefe;fill-opacity:1;fill-rule:nonzero;stroke:none;stroke-width:0.68333739;stroke-opacity:1"
           d="m 0,0 -6.629,6.028 c -5.74,1.722 -7.073,2.197 -8.755,2.796 -0.725,0.258 -1.519,0.541 -2.771,0.961 -4.483,1.503 -6.929,3.35 -9.897,5.797 -4.786,3.946 -11.615,6.404 -11.683,6.429 l -6.289,2.24 6.668,-0.336 c 0.527,-0.027 12.994,-0.662 17.969,-1.527 l 0.365,-0.064 c 4.734,-0.822 6.693,-1.161 11.418,-5.36 3.579,-3.181 4.287,-8.121 4.421,-9.599 L 1.32,1.452 Z" /></g><g
         style="fill:#fefefe;fill-opacity:1;stroke:none;stroke-width:0.68333739;stroke-opacity:1"
         transform="matrix(1.465312,0,0,1.4615026,262.20521,305.40804)"
         id="g841"><path
           inkscape:connector-curvature="0"
           id="path843"
           style="fill:#fefefe;fill-opacity:1;fill-rule:nonzero;stroke:none;stroke-width:0.68333739;stroke-opacity:1"
           d="m 0,0 -1.944,0.263 c 0.26,1.935 0.305,3.685 0.351,5.537 0.067,2.657 0.136,5.404 0.844,8.994 0.2,1.018 0.418,1.924 0.628,2.799 0.795,3.315 1.546,6.448 1.56,15.615 -1.179,1.874 -8.341,13.445 -10.875,22.084 -1.365,4.653 -1.541,14.875 -0.354,20.64 2.367,11.5 7.061,14.671 7.261,14.8 l 1.06,0.69 0.405,-1.198 C -1.033,90.133 2.021,81.101 3.26,78.709 3.907,77.456 4.736,76.216 5.613,74.904 7.09,72.692 8.766,70.187 10.313,66.63 11.629,63.601 13.946,55.365 12.704,49.241 11.453,43.078 4.77,34.782 3.402,33.134 3.382,23.789 2.571,20.407 1.787,17.136 1.582,16.279 1.369,15.393 1.176,14.414 0.5,10.988 0.434,8.326 0.369,5.751 0.321,3.844 0.275,2.042 0,0" /></g><g
         style="fill:#fefefe;fill-opacity:1;stroke:none;stroke-width:0.68333739;stroke-opacity:1"
         transform="matrix(1.465312,0,0,1.4615026,291.07933,230.63669)"
         id="g845"><path
           inkscape:connector-curvature="0"
           id="path847"
           style="fill:#fefefe;fill-opacity:1;fill-rule:nonzero;stroke:none;stroke-width:0.68333739;stroke-opacity:1"
           d="m 0,0 h -39.705 c -0.445,0 -0.835,0.549 -0.949,0.979 L -49.6,34.954 c -0.078,0.295 -0.014,0.515 0.171,0.757 0.186,0.241 0.474,0.289 0.778,0.289 H 7.884 c 0.3,0 0.583,0.019 0.768,-0.216 C 8.839,35.55 8.907,35.321 8.84,35.029 L 0.955,0.968 C 0.852,0.524 0.456,0 0,0" /></g><g
         style="fill:#fefefe;fill-opacity:1;stroke:none;stroke-width:0.68333739;stroke-opacity:1"
         transform="matrix(1.465312,0,0,1.4615026,306.5309,288.03413)"
         id="g849"><path
           inkscape:connector-curvature="0"
           id="path851"
           style="fill:#fefefe;fill-opacity:1;fill-rule:nonzero;stroke:none;stroke-width:0.68333739;stroke-opacity:1"
           d="M 0,0 C 0,-0.542 -0.183,-1.273 -0.688,-1.273 H -61.659 C -62.165,-1.273 -63,-0.542 -63,0 v 11.284 c 0,0.541 0.835,1.443 1.341,1.443 H -0.688 C -0.183,12.727 0,11.825 0,11.284 Z" /></g></g><path
       style="color:#000000;font-style:normal;font-variant:normal;font-weight:normal;font-stretch:normal;font-size:medium;line-height:normal;font-family:sans-serif;font-variant-ligatures:normal;font-variant-position:normal;font-variant-caps:normal;font-variant-numeric:normal;font-variant-alternates:normal;font-feature-settings:normal;text-indent:0;text-align:start;text-decoration:none;text-decoration-line:none;text-decoration-style:solid;text-decoration-color:#000000;letter-spacing:normal;word-spacing:normal;text-transform:none;writing-mode:lr-tb;direction:ltr;text-orientation:mixed;dominant-baseline:auto;baseline-shift:baseline;text-anchor:start;white-space:normal;shape-padding:0;clip-rule:nonzero;display:inline;overflow:visible;visibility:visible;opacity:1;isolation:auto;mix-blend-mode:normal;color-interpolation:sRGB;color-interpolation-filters:linearRGB;solid-color:#000000;solid-opacity:1;vector-effect:none;fill:none;fill-opacity:1;fill-rule:nonzero;stroke:#ffffff;stroke-width:6.07500015;stroke-linecap:butt;stroke-linejoin:miter;stroke-miterlimit:10;stroke-dasharray:none;stroke-dashoffset:0;stroke-opacity:1;color-rendering:auto;image-rendering:auto;shape-rendering:auto;text-rendering:auto;enable-background:accumulate"
       d="m 359.43164,203.66797 c -49.14424,0 -185.25983,0.40873 -196.73633,0.50781 h -0.002 c -6.38168,0.0559 -11.57377,0.96463 -15.45508,3.83203 -3.88131,2.86741 -5.80753,7.64293 -5.86914,13.53321 v 0.002 c -0.11544,11.17444 -0.008,133.20396 -0.002,139.64844 -2.37637,-0.4214 -5.61931,-0.87024 -9.24219,-0.98243 -7.07988,-0.21922 -15.80366,0.67785 -21.06445,6.91602 -4.54103,5.38326 -6.3877,12.3232 -5.95703,18.79492 0.43066,6.47172 3.1533,12.67156 8.3496,16.24414 v -0.002 l 148.22266,98.55664 71.11524,-47.55859 c 17.55267,-11.93655 35.29845,-24.0493 49.04882,-33.53125 6.87519,-4.74098 12.75175,-8.82318 17.11328,-11.9043 4.36154,-3.08112 6.92337,-4.88001 8.21876,-6.05469 v -0.002 c 10.04011,-9.10968 13.19619,-21.72769 7.12304,-30.75781 -4.80472,-7.14065 -14.00474,-9.23242 -21.66797,-9.97852 -4.65632,-0.45335 -8.29221,-0.35558 -10.91992,-0.19922 -10e-4,-4.66172 -0.0278,-103.51975 -0.39648,-136.72851 -0.0666,-5.9946 -1.31125,-11.25519 -4.99024,-14.9668 -3.67898,-3.71161 -9.30366,-5.36914 -16.88867,-5.36914 z m 0,6 c 6.72376,0 10.47473,1.42244 12.62695,3.59375 2.15223,2.17131 3.19402,5.59493 3.25196,10.80859 0.37584,33.85385 0.40625,139.87696 0.40625,139.87696 v 3.36914 l 3.34765,-0.39063 c 0,0 6.04919,-0.69828 12.98047,-0.0234 6.93129,0.67484 14.27489,2.90397 17.27149,7.35743 4.08313,6.07304 2.346,15.23278 -6.17579,22.96484 -0.24538,0.22252 -3.32273,2.54242 -7.65039,5.59961 -4.32765,3.05719 -10.19164,7.13129 -17.05664,11.86523 -13.72999,9.46789 -31.46858,21.5751 -49.01562,33.50782 -34.2507,23.29189 -66.16065,44.83014 -67.75195,45.90429 -2.97453,-1.98433 -131.43717,-87.68213 -144.8125,-96.88281 h -0.002 c -3.27906,-2.25443 -5.42675,-6.66367 -5.76172,-11.69727 -0.33496,-5.03359 1.15764,-10.4956 4.5586,-14.52734 3.19551,-3.7892 9.97831,-4.98454 16.29101,-4.78906 6.31271,0.19547 11.67578,1.57422 11.67578,1.57422 l 3.75586,0.97265 -0.004,-3.8789 c 0,0 -0.11107,-132.3231 0.002,-143.26758 v -0.002 c 0.0501,-4.75677 1.21271,-7.12736 3.43555,-8.76954 2.22318,-1.64242 6.14927,-2.60744 11.9414,-2.6582 11.20652,-0.0968 147.57475,-0.50781 196.68555,-0.50781 z"
       id="path855"
       inkscape:connector-curvature="0"
       sodipodi:nodetypes="ccccccccccccccsccccccccccccccccccccssccccccccccccccc" /><path
       style="font-variant:normal;font-weight:normal;font-stretch:normal;font-size:141.51194763px;font-family:'Century Gothic';-inkscape-font-specification:CenturyGothic;writing-mode:lr-tb;fill:#ffffff;fill-opacity:1;fill-rule:nonzero;stroke:#ffffff;stroke-width:1.80000005;stroke-miterlimit:4;stroke-dasharray:none;stroke-opacity:1"
       d="m 162.45347,110.41963 c 3.22875,0 6.45751,0 9.68626,0 0,-34.6879 0,-69.375799 0,-104.0636975 -3.22875,0 -6.45751,0 -9.68626,0 0,34.6878985 0,69.3757975 0,104.0636975 z M 267.24506,81.436371 c 0,-25.026813 0,-50.053625 0,-75.0804385 -3.18263,0 -6.36527,0 -9.5479,0 0,4.3014835 0,8.6029665 0,12.9044505 C 247.53705,5.7468961 228.16608,0.61879878 212.63872,7.3047891 196.2432,14.098691 186.3323,32.628456 189.25682,50.019512 c 2.45892,19.684504 21.97066,35.570487 41.89554,33.210791 10.70391,-0.665457 20.52545,-6.874904 26.5448,-15.595483 0,4.600517 0,9.201034 0,13.801551 3.18263,0 6.36527,0 9.5479,0 z m -38.74508,-7.38383 c -16.22093,0.510455 -30.31657,-14.297647 -29.88905,-30.294405 -0.30541,-16.266132 14.19576,-31.530306 30.8112,-30.485794 14.64408,0.148722 28.02658,12.324221 28.76151,27.061554 2.34467,16.520379 -11.10807,33.536809 -28.12531,33.684411 z m 61.1469,-67.6966085 c 0,34.6878985 0,69.3757975 0,104.0636975 3.20569,0 6.41137,0 9.61707,0 0,-13.962571 0,-27.92514 0,-41.88771 10.61832,14.344369 31.72631,19.107182 47.48623,10.749576 C 361.28831,71.778024 370.10475,54.99001 367.75774,38.785063 365.82333,18.678874 346.0403,2.1555301 325.76308,4.5620004 315.06169,5.2219443 305.31603,11.491156 299.26395,20.157483 c 0,-4.600516 0,-9.201033 0,-13.8015505 -3.2057,0 -6.41138,0 -9.61707,0 z m 38.74506,7.3838305 c 16.2754,-0.605869 30.21912,14.351996 29.88906,30.294405 0.40016,16.633315 -14.83698,32.03883 -31.72793,30.506819 C 311.88799,73.855929 298.80232,61.270592 298.63153,46.422482 296.8412,29.445059 310.99844,13.081319 328.39194,13.739763 Z"
       id="text859"
       inkscape:connector-curvature="0" /><path
       style="font-variant:normal;font-weight:normal;font-stretch:normal;font-size:65.31312561px;font-family:'Century Gothic';-inkscape-font-specification:CenturyGothic;writing-mode:lr-tb;fill:#ffffff;fill-opacity:1;fill-rule:nonzero;stroke:#ffffff;stroke-width:0.97500002;stroke-miterlimit:4;stroke-dasharray:none;stroke-opacity:1"
       d="m 184.34296,179.17598 c 3.52214,0.65921 5.45487,-0.26688 4.5025,-4.07056 -0.24294,-10.75784 0.61023,-21.59038 -0.71848,-32.27988 -2.18869,-11.0172 -15.83566,-14.02419 -25.14701,-10.596 -3.84027,0.19969 -14.39184,10.78862 -6.27143,9.55491 4.31319,-3.64563 10.39483,-8.56441 17.31766,-6.51028 7.68755,0.60746 11.4185,8.45919 10.31676,15.41551 -3.09043,-3.29115 -10.23738,-7.39467 -16.24976,-6.01886 -11.31352,0.93614 -18.82736,14.03039 -14.11227,24.27146 4.10212,11.29951 20.63681,15.09389 28.78135,5.93002 2.82389,-4.8943 1.10578,2.98403 1.58068,4.30368 z m -13.18822,-3.40791 c -10.0521,0.51444 -17.48949,-11.4835 -12.5216,-20.24147 5.27848,-10.56058 24.15603,-8.45837 25.69784,3.74532 1.78761,8.21484 -4.42389,16.76488 -13.17624,16.49615 z m 25.58781,3.40791 c 3.16427,0.43178 5.70906,0.2457 4.56638,-3.61827 0.43376,-2.31798 7.29348,8.21072 11.9588,3.8472 2.53265,-5.73908 -8.40007,-2.06368 -9.79536,-7.841 -3.50774,-7.90399 -1.73594,-16.85697 -2.16344,-25.26998 1.29734,-2.64338 -5.94132,-2.84724 -4.56638,0.0387 0,10.94777 0,21.89554 0,32.84331 z m 37.82263,0.8918 c 12.50747,0.6358 21.8271,-13.84844 16.80459,-25.12145 -4.19848,-12.29156 -22.41617,-15.37844 -30.47603,-5.21227 -9.45396,9.92133 -2.874,28.56867 10.75146,30.12881 0.9665,0.14039 1.9435,0.20495 2.91998,0.20491 z m 0,-4.3634 c -10.75489,0.39271 -17.32266,-13.37013 -11.24431,-21.84193 5.47828,-9.41776 21.32617,-7.14142 24.07278,3.29744 3.09041,8.47667 -3.55468,18.75836 -12.82847,18.54449 z m 21.69637,3.4716 c 3.00059,0.38862 5.64318,0.23921 6.00739,-3.33417 3.07483,-7.2757 6.14967,-14.55139 9.22451,-21.82708 3.71484,8.38709 7.42968,16.77418 11.14452,25.16125 2.22263,-0.93756 2.46896,-4.89741 3.90597,-7.0364 2.66831,-6.04161 5.33662,-12.08323 8.00492,-18.12485 3.6084,8.38709 7.2168,16.77418 10.82519,25.16125 3.326,0.36831 5.92993,0.264 3.2184,-3.31937 -4.54282,-10.44437 -9.08564,-20.88873 -13.62846,-31.33308 -2.30615,0.84524 -2.5258,4.89191 -3.99138,7.0269 -2.63984,5.928 -5.27968,11.856 -7.91952,17.784 -3.71484,-8.2703 -7.42967,-16.54061 -11.14452,-24.8109 -2.25269,0.89627 -2.43158,4.92331 -3.85434,7.07253 -3.93089,9.19331 -7.86179,18.38662 -11.79268,27.57992 z m 88.29036,-23.15472 c 7.7155,-1.65419 -0.83999,-8.72965 -4.49253,-10.58803 -9.17984,-4.57179 -21.99316,-0.5633 -25.22086,9.67235 -4.75321,11.1082 4.15977,25.65705 16.62098,24.9622 10.00122,0.54611 18.59143,-8.72742 18.01005,-18.56837 -10.41006,0 -20.82012,0 -31.23019,0 -0.60659,-9.27576 9.63181,-16.71555 18.23357,-12.86728 3.67363,1.15568 6.24528,4.14708 8.07898,7.38913 z m 0,9.33197 c -1.49999,10.94153 -17.81355,14.24836 -23.63768,5.03871 -4.418,-5.04534 -0.42965,-5.61994 4.12068,-5.03871 6.50568,0 13.01134,0 19.517,0 z m 11.56598,13.82275 c 3.16427,0.43178 5.70907,0.2457 4.56638,-3.61827 0.43377,-2.31798 7.29348,8.21072 11.95881,3.8472 2.53265,-5.73908 -8.40007,-2.06368 -9.79536,-7.841 -3.50774,-7.90399 -1.73594,-16.85697 -2.16345,-25.26998 1.29735,-2.64338 -5.94131,-2.84724 -4.56638,0.0387 0,10.94777 0,21.89554 0,32.84331 z"
       id="text863"
       inkscape:connector-curvature="0" /></g></svg>