<?xml version="1.0" encoding="utf-8"?>
<!-- Generator: Adobe Illustrator 16.0.3, SVG Export Plug-In . SVG Version: 6.00 Build 0)  -->
<!DOCTYPE svg PUBLIC "-//W3C//DTD SVG 1.1//EN" "http://www.w3.org/Graphics/SVG/1.1/DTD/svg11.dtd">
<svg version="1.1" id="Capa_1" xmlns="http://www.w3.org/2000/svg" xmlns:xlink="http://www.w3.org/1999/xlink" x="0px" y="0px"
	 width="1000px" height="1000px" viewBox="0 0 1000 1000" enable-background="new 0 0 1000 1000" xml:space="preserve">
<g>
	<g>
		<path fill="#7AC33C" d="M277.782,232.416c0,0,0.041-1.524,0.111-4.19c0.039-1.335,0.056-2.94,0.186-4.843
			c0.13-1.889,0.172-4.021,0.446-6.341c0.117-1.16,0.239-2.368,0.365-3.618c0.193-1.25,0.392-2.543,0.597-3.872
			c0.477-2.648,1.078-5.446,1.969-8.263c0.85-2.827,1.98-5.657,3.227-8.448c1.259-2.785,2.64-5.539,4.046-8.256
			c1.408-2.707,2.817-5.413,4.203-8.077c1.391-2.654,2.725-5.28,4.005-7.827c1.304-2.536,2.475-5.028,3.627-7.374
			c1.161-2.341,2.174-4.595,3.143-6.66c0.956-2.071,1.86-3.958,2.594-5.66c0.75-1.695,1.404-3.174,1.943-4.391
			c1.078-2.435,1.693-3.827,1.693-3.827l1.917,0.795c0,0-0.578,1.414-1.588,3.888c-0.505,1.237-1.119,2.74-1.823,4.463
			c-0.688,1.73-1.541,3.65-2.441,5.758c-0.913,2.103-1.866,4.396-2.965,6.783c-1.09,2.39-2.196,4.933-3.433,7.518
			c-1.213,2.598-2.478,5.275-3.796,7.977c-1.308,2.699-2.636,5.441-3.964,8.184c-2.64,5.475-5.109,10.946-6.554,16.28
			c-0.759,2.658-1.244,5.291-1.623,7.806c-0.158,1.266-0.313,2.497-0.461,3.688c-0.086,1.206-0.169,2.37-0.25,3.488
			c-0.201,2.231-0.18,4.297-0.254,6.117c-0.075,1.808-0.046,3.443-0.046,4.775c0.006,2.668,0.01,4.192,0.01,4.192L277.782,232.416z"
			/>
	</g>
	<g>
		<g>
			<path fill="none" stroke="#7AC33C" stroke-width="2" stroke-miterlimit="10" d="M277.615,191.979c0,0-11.333-0.417-21.736-15.655
				c-9.691-14.196-6.789-27.959-6.789-27.959s13.313,3.436,20.817,13.253C279.628,174.336,275.933,176.565,277.615,191.979z"/>
			<path fill="none" stroke="#7AC33C" stroke-width="2" stroke-miterlimit="10" d="M249.09,148.365
				c17.877,23.26,17.98,25.36,28.525,43.614"/>
		</g>
		<g>
			<path fill="#7AC33C" d="M278.528,191.571c0,0,0.431,0.853,1.079,2.132c0.162,0.32,0.337,0.666,0.522,1.033
				c0.19,0.358,0.346,0.808,0.531,1.235c0.179,0.438,0.364,0.89,0.552,1.35c0.212,0.457,0.331,0.939,0.454,1.421
				c0.127,0.483,0.253,0.965,0.378,1.44c0.115,0.474,0.267,0.951,0.343,1.396c0.162,0.892,0.313,1.725,0.443,2.438
				c0.259,1.43,0.433,2.383,0.433,2.383l-3.199,0.4c0,0-0.094-0.938-0.234-2.344c-0.07-0.705-0.152-1.526-0.24-2.407
				c-0.04-0.443-0.144-0.859-0.214-1.306c-0.078-0.442-0.158-0.892-0.237-1.342c-0.075-0.452-0.146-0.907-0.306-1.318
				c-0.135-0.423-0.268-0.839-0.396-1.242c-0.139-0.406-0.229-0.792-0.393-1.173c-0.155-0.38-0.302-0.739-0.438-1.071
				c-0.542-1.326-0.904-2.21-0.904-2.21L278.528,191.571z"/>
		</g>
	</g>
	<g>
		<g>
			<path fill="none" stroke="#7AC33C" stroke-width="2" stroke-miterlimit="10" d="M314.387,129.306c0,0,9.771-0.338,18.74-12.699
				c8.355-11.516,5.853-22.68,5.853-22.68s-11.478,2.787-17.947,10.75C312.651,114.995,315.837,116.803,314.387,129.306z"/>
			<path fill="none" stroke="#7AC33C" stroke-width="2" stroke-miterlimit="10" d="M338.979,93.927
				c-15.413,18.868-15.501,20.572-24.593,35.379"/>
		</g>
		<g>
			<path fill="#7AC33C" d="M315.354,129.558c0,0-0.194,0.75-0.484,1.875c-0.154,0.563-0.316,1.219-0.437,1.917
				c-0.068,0.35-0.139,0.711-0.21,1.079c-0.059,0.361-0.168,0.753-0.274,1.143c-0.104,0.389-0.208,0.778-0.312,1.161
				c-0.109,0.38-0.192,0.765-0.317,1.118c-0.28,0.692-0.542,1.339-0.767,1.893c-0.451,1.107-0.751,1.845-0.751,1.845l-1.812-0.846
				c0,0,0.283-0.698,0.707-1.744c0.213-0.523,0.461-1.133,0.728-1.786c0.117-0.331,0.19-0.684,0.291-1.036
				c0.095-0.354,0.192-0.713,0.289-1.072c0.098-0.358,0.199-0.712,0.265-1.104c0.075-0.381,0.148-0.756,0.219-1.12
				c0.129-0.734,0.292-1.394,0.445-1.952c0.291-1.125,0.484-1.875,0.484-1.875L315.354,129.558z"/>
		</g>
	</g>
	<g>
		<g>
			<path fill="none" stroke="#7AC33C" stroke-width="2" stroke-miterlimit="10" d="M304.996,185.351c0,0,13.516-0.376,25.922-14.125
				c11.557-12.808,8.096-25.226,8.096-25.226s-15.877,3.1-24.826,11.958C302.595,169.433,307.002,171.444,304.996,185.351z"/>
			<path fill="none" stroke="#7AC33C" stroke-width="2" stroke-miterlimit="10" d="M339.015,146
				c-21.32,20.986-21.443,22.881-34.019,39.351"/>
		</g>
		<g>
			<path fill="#7AC33C" d="M305.81,185.933c0,0-0.192,0.279-0.529,0.766c-0.17,0.245-0.504,0.583-0.831,0.941
				c-0.353,0.321-0.743,0.67-1.21,0.987c-0.235,0.153-0.48,0.313-0.734,0.479c-0.262,0.139-0.533,0.281-0.812,0.429
				c-0.559,0.273-1.158,0.544-1.772,0.77c-1.233,0.481-2.539,0.886-3.816,1.311c-1.283,0.417-2.534,0.857-3.689,1.305
				c-0.569,0.239-1.134,0.441-1.644,0.683c-0.511,0.238-1.008,0.437-1.442,0.666c-0.882,0.433-1.604,0.815-2.096,1.11
				c-0.498,0.282-0.782,0.443-0.782,0.443l-1.338-2.311c0,0,0.31-0.163,0.853-0.449c0.536-0.298,1.321-0.684,2.277-1.117
				c0.472-0.23,1.004-0.426,1.556-0.661c0.551-0.239,1.149-0.435,1.758-0.667c1.226-0.433,2.545-0.85,3.85-1.23
				c1.305-0.389,2.6-0.749,3.746-1.157c0.583-0.194,1.111-0.417,1.604-0.638c0.24-0.117,0.474-0.23,0.7-0.34
				c0.208-0.127,0.41-0.25,0.604-0.369c0.381-0.238,0.694-0.51,0.959-0.73c0.228-0.252,0.432-0.398,0.609-0.634
				c0.352-0.477,0.553-0.75,0.553-0.75L305.81,185.933z"/>
		</g>
	</g>
	<g>
		<path fill="none" stroke="#7AC33C" stroke-width="3" stroke-linejoin="bevel" stroke-miterlimit="10" d="M233.649,229.36
			l25.879,48.816h0.083c0.93,2.656,10.104,4.742,21.292,4.742c11.188,0,20.363-2.086,21.293-4.742h0.083l24.52-48.92"/>
		<path fill="none" stroke="#7AC33C" stroke-width="3" stroke-linecap="square" stroke-linejoin="bevel" stroke-miterlimit="10" d="
			M326.8,228.989c0,3.528-20.91,7.388-46.632,7.388c-25.723,0-46.519-3.86-46.519-7.388c0-3.528,20.853-6.388,46.576-6.388
			C305.948,222.601,326.8,225.461,326.8,228.989z"/>
	</g>
</g>
</svg>
