<?xml version="1.0" encoding="UTF-8" standalone="no"?>
<svg
   xmlns:dc="http://purl.org/dc/elements/1.1/"
   xmlns:cc="http://creativecommons.org/ns#"
   xmlns:rdf="http://www.w3.org/1999/02/22-rdf-syntax-ns#"
   xmlns:svg="http://www.w3.org/2000/svg"
   xmlns="http://www.w3.org/2000/svg"
   xmlns:sodipodi="http://sodipodi.sourceforge.net/DTD/sodipodi-0.dtd"
   xmlns:inkscape="http://www.inkscape.org/namespaces/inkscape"
   id="Layer_1"
   enable-background="new 0 0 497 497"
   height="458.52795"
   viewBox="0 0 345.63199 445.09452"
   width="356.06354"
   version="1.1"
   sodipodi:docname="soil_hum.svg"
   inkscape:version="0.92.4 (5da689c313, 2019-01-14)">
  <metadata
     id="metadata53">
    <rdf:RDF>
      <cc:Work
         rdf:about="">
        <dc:format>image/svg+xml</dc:format>
        <dc:type
           rdf:resource="http://purl.org/dc/dcmitype/StillImage" />
      </cc:Work>
    </rdf:RDF>
  </metadata>
  <defs
     id="defs51" />
  <sodipodi:namedview
     pagecolor="#ffffff"
     bordercolor="#666666"
     borderopacity="1"
     objecttolerance="10"
     gridtolerance="10"
     guidetolerance="10"
     inkscape:pageopacity="0"
     inkscape:pageshadow="2"
     inkscape:window-width="1304"
     inkscape:window-height="745"
     id="namedview49"
     showgrid="false"
     inkscape:zoom="0.65186406"
     inkscape:cx="-110.58553"
     inkscape:cy="318.68906"
     inkscape:window-x="-8"
     inkscape:window-y="-8"
     inkscape:window-maximized="1"
     inkscape:current-layer="Layer_1" />
  <path
     style="fill:#515055;fill-opacity:1;stroke-width:0.50878525"
     inkscape:connector-curvature="0"
     d="M 268.36043,0.20312707 207.65596,8.7071738e-5 C 199.23805,-0.02811293 192.367,6.7971671 192.33884,15.215077 l -0.28357,84.780524 c 0.002,0.002 0.002,0.002 5.4e-4,0.003 l -0.21173,63.304419 c -5.7e-4,0.003 -5.7e-4,0.003 -5.7e-4,0.003 l -0.31619,94.95364 c -0.002,0.002 -1e-5,0.003 -7.8e-4,0.005 0,0 -1e-5,0.002 -1e-5,0.002 l -0.0719,21.48457 c -0.0282,8.41791 6.7971,15.28896 15.215,15.31712 l 60.70455,0.20315 c 4.20895,0.0127 8.03014,-1.68485 10.80366,-4.43987 2.77352,-2.75503 4.49797,-6.56617 4.51345,-10.77513 l 0.10968,-32.78625 c 0.009,-2.81066 -2.26103,-5.09631 -5.07167,-5.10572 -2.81066,-0.009 -5.09632,2.26103 -5.10572,5.07168 l -0.10966,32.78626 c -0.008,2.80643 -2.29928,5.08246 -5.1057,5.07166 l -60.70447,-0.20305 c -2.80644,-0.008 -5.08246,-2.29928 -5.07167,-5.1057 l 0.0562,-16.39875 23.86245,0.0798 c 1.40532,0.005 2.67763,-0.56161 3.6012,-1.47903 0.92357,-0.91741 1.49979,-2.18731 1.50309,-3.59124 0.009,-2.81065 -2.26102,-5.0963 -5.07307,-5.10711 l -23.86244,-0.0798 0.0719,-21.47619 8.42353,0.0282 c 1.40533,0.005 2.67905,-0.56021 3.60261,-1.47761 0.92357,-0.91741 1.49839,-2.18872 1.50309,-3.59405 0.008,-2.80926 -2.26241,-5.09491 -5.07166,-5.1057 l -8.42353,-0.0282 0.0718,-21.47619 23.86244,0.0798 c 1.40533,0.005 2.67905,-0.5602 3.60403,-1.47902 0.92356,-0.9174 1.49698,-2.18732 1.50168,-3.59265 0.0108,-2.80923 -2.26102,-5.0963 -5.07027,-5.10429 l -23.86383,-0.0812 0.0719,-21.4762 8.42352,0.0282 c 1.40534,0.005 2.67905,-0.5602 3.60262,-1.47762 0.92357,-0.9174 1.49839,-2.18872 1.50167,-3.59264 0.009,-2.81065 -2.26101,-5.09632 -5.07166,-5.10571 l -8.4221,-0.0296 0.0718,-21.4762 23.8526,0.0812 c 1.40532,0.005 2.68046,-0.56161 3.60403,-1.47902 0.92356,-0.91741 1.49698,-2.18734 1.50168,-3.59265 0.009,-2.81065 -2.26102,-5.0963 -5.07167,-5.10571 l -23.85401,-0.0798 0.0719,-21.47619 8.42353,0.0282 c 1.40532,0.005 2.67904,-0.56021 3.60262,-1.47762 0.92497,-0.91882 1.49838,-2.18873 1.50309,-3.59406 0.009,-2.810649 -2.26102,-5.096299 -5.07167,-5.105699 l -8.42354,-0.0282 0.0719,-21.47619 23.86243,0.0798 c 1.40674,0.003 2.68046,-0.5616 3.60403,-1.47901 0.92357,-0.91741 1.49839,-2.18873 1.50168,-3.59266 0.009,-2.81065 -2.26101,-5.096304 -5.07167,-5.105704 l -23.86243,-0.0798 0.0719,-21.47619 8.42353,0.0282 c 1.40532,0.005 2.67905,-0.56021 3.60261,-1.47762 0.92357,-0.91741 1.49839,-2.18873 1.50309,-3.59404 0.008,-2.80926 -2.26242,-5.09491 -5.07166,-5.10571 l -8.42071,-0.0282 0.0548,-16.3861 c 0.009,-2.80503 2.30069,-5.08105 5.10572,-5.07166 l 60.70447,0.20304 c 2.80503,0.009 5.08105,2.30067 5.07167,5.1057 l -0.63899,191.040043 c -0.009,2.81066 2.26101,5.09632 5.07167,5.10571 2.81064,0.009 5.09629,-2.26101 5.10569,-5.07165 L 283.57633,15.520727 C 283.60453,7.1028271 276.77925,0.23176707 268.36134,0.20361707 Z m 0,0"
     id="path2-2" />
  <path
     d="M 283.243,445.09451 H 62.389 l -43.573,-194.5 h 306 z"
     id="path4"
     style="fill:#846a50;fill-opacity:1"
     inkscape:connector-curvature="0" />
  <path
     d="M 334.157,255.01851 H 11.475 c -6.337,0 -11.475,-5.137 -11.475,-11.475 v -33.139 c 0,-6.337 5.137,-11.346 11.475,-11.346 h 322.682 c 6.337,0 11.475,5.008 11.475,11.346 v 33.139 c 0,6.338 -5.138,11.475 -11.475,11.475 z"
     id="path8"
     style="fill:#fca129;fill-opacity:1"
     inkscape:connector-curvature="0" />
  <path
     d="m 62.389,445.09451 h 220.854 l 18.058,-84.485 H 43.462 Z"
     id="path12"
     style="fill:#fc9329;fill-opacity:1"
     inkscape:connector-curvature="0" />
  <path
     d="m 35.444,324.81751 8.018,35.792 h 257.839 l 7.65,-35.792 z"
     id="path22"
     style="fill:#ff834f;fill-opacity:1"
     inkscape:connector-curvature="0" />
  <path
     d="m 308.951,324.81751 7.726,-36.146 H 27.346 l 8.098,36.146 z"
     id="path26"
     style="fill:#b3edf7;fill-opacity:1"
     inkscape:connector-curvature="0" />
  <g
     id="g1481"
     transform="matrix(0.88958538,0,0,0.88958538,386.13017,43.487958)">
    <path
       id="path2"
       d="m -255.72805,65.991699 c -0.0169,-0.0453 -0.0363,-0.0885 -0.0583,-0.13129 l -49.28936,-95.001018 c -0.20471,-0.39387 -0.61111,-0.64177 -1.05552,-0.64177 -0.44441,0 -0.85081,0.2479 -1.05552,0.64177 l -49.28936,95.001018 c -0.0225,0.0428 -0.0419,0.0864 -0.0583,0.13129 -5.19468,13.908752 -4.66303,29.006902 1.49819,42.513141 6.1608,13.5071 17.21351,23.80531 31.12183,28.99912 5.69652,2.12745 11.66685,3.30044 17.74688,3.48529 0.0121,4.3e-4 0.0242,4.3e-4 0.0363,4.3e-4 0.0121,0 0.0242,0 0.0363,-4.3e-4 6.0796,-0.18571 12.05036,-1.35827 17.74602,-3.48529 13.90789,-5.19381 24.96103,-15.49245 31.12226,-28.99912 6.16079,-13.506239 6.6933,-28.604389 1.49863,-42.513141 z"
       style="fill:#68ccea;stroke-width:0.43188167"
       inkscape:connector-curvature="0" />
    <path
       inkscape:connector-curvature="0"
       style="fill:#5abce2;stroke-width:0.43188167"
       d="m -302.33067,131.45805 c -11.81498,-11.64266 -18.38866,-27.19083 -18.51088,-43.780273 -4.3e-4,-0.05312 0.003,-0.107107 0.009,-0.160228 l 13.24711,-115.889402 -48.89074,94.232263 c -0.0224,0.04276 -0.0419,0.08638 -0.0583,0.131292 -5.19467,13.90875 -4.66303,29.006902 1.4982,42.513138 6.16079,13.5071 17.21351,23.80532 31.12182,28.99913 5.69652,2.12745 11.66686,3.30044 17.74689,3.48528 0.0121,4.3e-4 0.0242,4.3e-4 0.0363,4.3e-4 0.0121,0 0.0242,0 0.0363,-4.3e-4 4.4324,-0.13518 8.80564,-0.80157 13.05794,-1.9737 -3.29741,-2.19309 -6.40955,-4.71658 -9.29366,-7.5575 z"
       id="path4-4" />
  </g>
  <text
     xml:space="preserve"
     style="font-style:normal;font-weight:normal;font-size:145.32237244px;line-height:1.25;font-family:sans-serif;letter-spacing:0px;word-spacing:0px;fill:#e4e4e4;fill-opacity:1;stroke:none;stroke-width:3.63305926"
     x="109.73962"
     y="404.69467"
     id="text880"
     transform="scale(0.91680104,1.0907492)"><tspan
       sodipodi:role="line"
       id="tspan878"
       x="109.73962"
       y="404.69467"
       style="fill:#e4e4e4;fill-opacity:1;stroke-width:3.63305926">%</tspan></text>
</svg>
